<svg width="12" height="9" viewBox="0 0 12 9" fill="none" xmlns="http://www.w3.org/2000/svg">
<path d="M6.22216 8.15945C6.08752 8.15945 5.95692 8.13179 5.83036 8.07647C5.7038 8.02116 5.59878 7.9474 5.5153 7.85521L0.870224 2.76616C0.685094 2.56334 0.592529 2.3052 0.592529 1.99174C0.592529 1.67829 0.685094 1.42015 0.870224 1.21732C1.05535 1.0145 1.29097 0.913086 1.57708 0.913086C1.86319 0.913086 2.09881 1.0145 2.28394 1.21732L6.22216 5.53195L10.1604 1.21732C10.3455 1.0145 10.5811 0.913086 10.8672 0.913086C11.1533 0.913086 11.389 1.0145 11.5741 1.21732C11.7592 1.42015 11.8518 1.67829 11.8518 1.99174C11.8518 2.3052 11.7592 2.56334 11.5741 2.76616L6.92902 7.85521C6.82804 7.96584 6.71864 8.04439 6.60083 8.09085C6.48302 8.13732 6.3568 8.16018 6.22216 8.15945Z" fill="black"/>
</svg>
